<svg width="37" height="45" viewBox="0 0 37 45" fill="none" xmlns="http://www.w3.org/2000/svg">
<path d="M27.4014 0C27.5049 0 27.6085 0 27.7179 0C27.9719 3.13786 26.7742 5.48247 25.3186 7.18036C23.8903 8.86652 21.9345 10.5019 18.7713 10.2537C18.5602 7.16082 19.7599 4.9901 21.2135 3.29613C22.5617 1.71742 25.0333 0.312614 27.4014 0Z" fill="white"/>
<path d="M36.9781 32.6604C36.9781 32.6916 36.9781 32.719 36.9781 32.7483C36.0891 35.4407 34.8211 37.7482 33.2736 39.8896C31.861 41.8336 30.1299 44.4498 27.0389 44.4498C24.368 44.4498 22.5939 42.7324 19.8566 42.6855C16.961 42.6386 15.3686 44.1216 12.7212 44.4948C12.4183 44.4948 12.1155 44.4948 11.8185 44.4948C9.87444 44.2134 8.30551 42.6738 7.16252 41.2866C3.79214 37.1874 1.18768 31.8925 0.703125 25.1166C0.703125 24.4523 0.703125 23.7899 0.703125 23.1256C0.908278 18.2762 3.26461 14.3334 6.39661 12.4225C8.04956 11.4065 10.3219 10.541 12.8521 10.9278C13.9365 11.0958 15.0443 11.4671 16.0154 11.8344C16.9356 12.188 18.0864 12.8152 19.1767 12.782C19.9152 12.7605 20.6499 12.3756 21.3943 12.104C23.5748 11.3166 25.7123 10.414 28.5297 10.8379C31.9157 11.3498 34.3189 12.8543 35.8038 15.1755C32.9395 16.9984 30.675 19.7455 31.0619 24.4367C31.4057 28.698 33.8832 31.1911 36.9781 32.6604Z" fill="white"/>
</svg>
