<svg width="144" height="26" viewBox="0 0 144 26" fill="none" xmlns="http://www.w3.org/2000/svg">
<g clip-path="url(#clip0_139_203)">
<path d="M109.556 2.22231V4.98875H112.303C113.503 4.98875 114.291 5.7331 114.74 6.21388C115.1 6.60986 123.012 15.4317 123.201 15.6636C123.392 15.8958 123.392 15.8983 123.392 16.0458V20.417C123.391 20.6175 123.371 20.8174 123.331 21.0139C123.275 21.1408 123.191 21.2541 123.086 21.346C122.981 21.4379 122.856 21.5062 122.721 21.5461C122.462 21.5781 122.2 21.5942 121.939 21.5941L119.188 21.5908V24.3576H134.615V21.5908H131.712C131.452 21.5921 131.192 21.5759 130.935 21.5423C130.8 21.5028 130.676 21.4347 130.571 21.3428C130.466 21.2509 130.383 21.1375 130.328 21.0106C130.288 20.8141 130.266 20.6142 130.265 20.4137V16.0449C130.248 15.9014 130.285 15.7566 130.368 15.6377L138.927 6.03552C139.713 5.17505 140.122 4.98834 141.152 4.98834H143.991V2.22147H131.278V4.98249H133.196C133.299 4.97637 133.402 4.99942 133.492 5.04893C133.582 5.09843 133.655 5.1723 133.704 5.26174C133.752 5.35119 133.774 5.45246 133.765 5.55349C133.757 5.65453 133.719 5.75107 133.657 5.83168C133.616 5.88807 128.334 11.9966 128.268 12.0559C128.202 12.1152 128.159 12.101 128.11 12.0362C128.061 11.9711 122.842 5.83168 122.842 5.83168C122.474 5.38724 122.761 4.98291 123.193 4.98291H125.063V2.22189L109.556 2.22231Z" fill="white"/>
<path d="M71.7197 2.22232V4.98876H74.182C75.9601 4.98876 76.0811 5.96243 76.0811 6.8112V19.7608C76.0811 20.5357 76.127 21.5996 74.9938 21.5996H71.955V24.3635H84.928V21.5996H81.7635C80.5003 21.5996 80.4426 21.0315 80.4285 19.8231V8.7293L98.2458 24.3639H102.777L102.538 6.70636C102.561 5.41607 102.642 4.98626 104 4.98626H106.839V2.22232H93.6049V4.98626H96.5111C97.8461 4.98626 98.07 5.49251 98.087 6.70636L98.2458 15.9468L82.7787 2.22232H71.7197Z" fill="white"/>
<path d="M13.302 0.830139C10.5144 0.830139 7.34697 1.34517 4.67099 2.52768C2.17342 3.62541 0.139667 5.38812 0.139667 8.31037C0.135845 9.84103 0.727811 11.3151 1.79411 12.4302C2.51619 13.0864 3.6813 14.2012 6.72553 14.8574C8.08603 15.1406 10.9948 15.5959 13.892 15.8958C16.7889 16.1958 19.5974 16.4618 20.7476 16.7647C21.663 16.9936 23.2019 17.3052 23.2019 19.0027C23.2019 20.7003 21.5823 21.209 21.3002 21.3197C21.0186 21.43 19.0732 22.3072 15.5804 22.3072C13.2664 22.2439 10.9734 21.8562 8.77074 21.1556C7.46759 20.6969 6.10114 20.0946 4.82644 18.5637C4.312 17.843 4.02657 16.9884 4.00625 16.1081H0.841797V24.8222H4.35751V23.6426C4.35702 23.5551 4.38022 23.4691 4.42476 23.3933C4.46929 23.3176 4.53353 23.2549 4.61087 23.2117C4.68821 23.1685 4.77589 23.1463 4.86484 23.1474C4.95378 23.1486 5.04081 23.173 5.11698 23.2182C6.77325 23.927 8.49606 24.4747 10.2608 24.8535C12.1081 25.2324 13.3021 25.5072 15.5979 25.5072C18.0204 25.5524 20.4348 25.2171 22.7499 24.5139C24.2873 24.0995 25.7297 23.3993 26.9992 22.4513C27.7132 21.9119 28.2904 21.2171 28.6853 20.4214C29.0802 19.6256 29.2821 18.7507 29.2751 17.8653C29.2873 16.1831 28.6273 14.5634 27.4371 13.355C26.7752 12.7234 26.0084 12.2078 25.1698 11.8304C24.2683 11.4299 23.3324 11.1089 22.3732 10.8713C20.5493 10.4327 16.4525 9.88386 14.4935 9.6913C12.439 9.48245 8.87396 9.19047 7.45017 8.75773C7.01861 8.62448 6.1381 8.21472 6.1381 7.21014C6.1381 6.49462 6.54076 5.88894 7.33506 5.39939C8.59787 4.62163 11.1472 4.13751 13.8054 4.13751C16.3786 4.10684 18.9308 4.59694 21.3032 5.57734C21.9405 5.85053 22.5399 6.20241 23.0868 6.62452C23.9783 7.37342 24.5957 8.38903 24.8444 9.51586H27.6844V1.93079H24.5199V2.81047C24.5199 3.09367 24.2319 3.4671 23.6564 3.15884C22.2292 2.42869 18.219 0.850189 13.302 0.830139Z" fill="white"/>
<path d="M51.3894 0.832184C46.4036 0.832184 41.1094 2.52972 38.1174 5.20302C36.9768 6.22435 36.0662 7.46923 35.4443 8.85754C34.8224 10.2458 34.503 11.7468 34.5066 13.2639C34.4887 14.7871 34.8015 16.2966 35.4241 17.6914C36.0467 19.0863 36.9648 20.3345 38.117 21.3527C41.3397 24.2014 46.1734 25.7294 51.3894 25.7294C56.6139 25.7294 61.5509 24.2185 64.6958 21.3527C65.8139 20.3106 66.7058 19.0567 67.3179 17.6665C67.9299 16.2764 68.2494 14.7787 68.257 13.2639C68.2724 11.7506 67.9633 10.2511 67.3497 8.8632C66.736 7.47534 65.8318 6.23029 64.6958 5.2093C61.3207 2.19891 56.9045 0.832184 51.3894 0.832184ZM51.3894 4.06855C54.1168 4.06855 56.7435 5.03345 58.5126 6.74561C60.2244 8.40347 61.1189 10.746 61.1189 13.2526C61.1189 15.8783 60.3051 18.006 58.513 19.76C56.7206 21.5143 54.1542 22.4533 51.3894 22.4533C48.6446 22.4533 46.0235 21.4943 44.2544 19.76C43.4081 18.8965 42.7437 17.8771 42.2993 16.7604C41.855 15.6436 41.6394 14.4515 41.665 13.2526C41.665 10.7572 42.5481 8.4064 44.2544 6.74561C46.0235 5.02509 48.6621 4.06855 51.3894 4.06855Z" fill="white"/>
</g>
<defs>
<clipPath id="clip0_139_203">
<rect width="143.853" height="24.8976" fill="white" transform="translate(0.137695 0.83197)"/>
</clipPath>
</defs>
</svg>
