<svg width="144" height="40" viewBox="0 0 144 40" fill="none" xmlns="http://www.w3.org/2000/svg">
<g clip-path="url(#clip0_139_231)">
<path d="M14.0136 5.94036C15.8097 6.53904 17.1942 7.58674 18.1671 9.08345L18.3354 9.30796L21.8714 6.72612C21.7591 6.55775 19.6264 3.24627 15.4169 1.78698C12.1615 0.664448 7.61524 0.552195 4.19152 3.86366C1.66581 6.33324 1.4413 9.81309 2.56384 12.0582C4.30376 15.4819 7.44686 16.2115 10.6461 16.8289C11.4319 16.9973 12.2738 17.1656 13.0595 17.3341C16.5955 18.2321 17.3251 19.2424 17.3813 20.8701C17.4375 22.1049 16.4272 24.406 12.1054 24.6305C6.26819 24.9111 3.96701 20.7578 3.85475 20.5895L3.68637 20.3088L0.150391 22.8905C0.31877 23.1712 3.63024 29.0084 11.6002 29.0084C11.8247 29.0084 12.1054 29.0084 12.3299 29.0084C19.5141 28.6716 21.9276 23.8448 21.7591 20.7016C21.4785 15.0329 16.1465 13.6858 14.1259 13.1246C13.2279 12.9001 12.3299 12.7317 11.4319 12.5633C8.51326 12.002 7.11009 11.553 6.43657 10.1499C6.09982 9.47634 6.09982 8.07317 7.16622 7.06289C9.07452 5.21071 11.8247 5.2107 14.0136 5.94036Z" fill="white"/>
<path d="M69.7476 29.0085H74.0694V9.30797H69.7476V10.7673C68.0638 9.53247 65.9871 8.80283 63.7982 8.80283C58.2977 8.80283 53.8076 13.293 53.8076 18.7934V19.074C53.8076 24.5745 58.2978 29.0646 63.7982 29.0646C66.0432 29.0646 68.1198 28.335 69.7476 27.1001V29.0085ZM64.0788 24.6305C60.9918 24.6305 58.4661 22.1049 58.4661 19.0179V18.9618C58.4661 15.9309 60.7112 13.3491 63.742 13.1246C66.9974 12.9001 69.7476 15.538 69.7476 18.7372V19.0179C69.7476 22.1049 67.2219 24.6305 64.0788 24.6305Z" fill="white"/>
<path d="M82.1509 1.11346H77.8291V29.0084H82.1509V1.11346Z" fill="white"/>
<path d="M90.2339 1.11346H85.9121V29.0084H90.2339V1.11346Z" fill="white"/>
<path d="M116.837 29.0085H121.159V15.5942L116.837 12.7878V29.0085Z" fill="white"/>
<path d="M139.626 9.30797V10.7673C137.942 9.53247 135.865 8.80283 133.676 8.80283C128.176 8.80283 123.686 13.293 123.686 18.7934V19.074C123.686 24.5745 128.176 29.0646 133.676 29.0646C135.921 29.0646 137.942 28.335 139.626 27.1001C139.626 27.3807 139.569 28.0543 139.513 28.5033C138.896 31.5342 136.202 33.7792 133.003 33.7792C130.421 33.7792 128.176 32.2638 127.053 30.1309L123.854 33.2179C125.818 36.1365 129.186 38.1009 133.003 38.1009C138.896 38.1009 143.723 33.4986 144.003 27.6614V9.30797H139.626ZM139.626 19.0179C139.626 22.1049 137.1 24.6305 134.013 24.6305C130.926 24.6305 128.4 22.1049 128.4 19.0179V18.9618C128.4 15.9309 130.645 13.3491 133.676 13.1246C136.988 12.9001 139.682 15.538 139.682 18.7372V19.0179H139.626Z" fill="white"/>
<path d="M39.8313 16.5483C39.8874 14.5839 41.3466 13.0685 43.255 13.0685C45.2756 13.0685 46.9032 14.8084 46.9032 16.8289V29.0645H51.225V15.4819C51.225 11.7214 48.3063 8.69058 44.7143 8.69058C42.1886 8.69058 40.0558 10.0938 38.9332 12.1704C37.8107 10.0938 35.6779 8.69058 33.2644 8.69058C31.4123 8.69058 29.7846 9.47636 28.6059 10.655V9.19572H24.2842V29.0084H28.6059V16.4922C28.6059 14.6961 29.953 13.1807 31.749 13.0123C31.8052 13.0123 31.9174 13.0123 32.0297 13.0123C34.0502 13.0123 35.5095 14.64 35.5095 16.6606C35.5095 18.3818 35.5095 22.4977 35.5095 29.0084H39.8313V16.5483Z" fill="white"/>
<path d="M121.159 5.37911L117.174 8.01706C116.949 8.18544 116.837 8.40995 116.837 8.63445V10.2621C116.837 10.5428 116.949 10.7673 117.174 10.8795L121.159 13.5175C121.552 13.742 122.001 13.5175 122.001 13.0685V5.82813C122.001 5.43524 121.552 5.15461 121.159 5.37911Z" fill="#E61E28"/>
<path d="M114.986 9.64471C114.986 4.93008 111.169 1.11346 106.454 1.11346H95.2851H93.9941V29.0084H98.3159V18.1759H103.087L108.924 29.0084H114.536L108.475 17.9514C112.235 17.0534 114.986 13.6858 114.986 9.64471ZM106.454 13.7981H100.617H98.372V5.43521H106.454C108.755 5.43521 110.608 7.2874 110.608 9.5886C110.664 11.9459 108.755 13.7981 106.454 13.7981Z" fill="white"/>
</g>
<defs>
<clipPath id="clip0_139_231">
<rect width="143.853" height="38.7296" fill="white" transform="translate(0.150391 0.915985)"/>
</clipPath>
</defs>
</svg>
