<svg width="71" height="43" viewBox="0 0 71 43" fill="none" xmlns="http://www.w3.org/2000/svg">
<g clip-path="url(#clip0_139_201)">
<path d="M59.7572 8.74614H70.5309L65.186 31.9266H54.4263L59.7572 8.74614ZM45.9612 8.74614H56.721L51.502 30.9536C50.2427 36.3338 46.6049 42.0288 39.1332 42.0288H23.0006L25.4771 34.5023H32.8928C36.3908 34.5023 40.2945 32.5276 41.148 28.9504L45.9612 8.74614ZM44.688 0.532806H33.6064L28.4434 22.7832C27.9397 24.9439 27.2401 26.1888 24.7216 26.1888H15.3051C13.1643 26.1888 13.2203 24.9009 13.668 23.0408L15.1232 16.8879C15.4869 15.3569 15.9767 14.67 17.9635 14.67H27.2401L28.6253 8.73183H10.6038C6.33627 8.73183 3.76177 10.8352 2.75435 15.1709L0.319769 25.5735C-0.687645 29.9234 0.879444 31.9266 3.95765 31.9266H30.2903C35.8171 31.9266 37.9579 29.7231 38.9233 25.5305L44.688 0.532806Z" fill="white"/>
</g>
<defs>
<clipPath id="clip0_139_201">
<rect width="70.5431" height="41.496" fill="white" transform="translate(0 0.532806)"/>
</clipPath>
</defs>
</svg>
