<svg width="24" height="24" viewBox="0 0 24 24" fill="none" xmlns="http://www.w3.org/2000/svg">
<path fill-rule="evenodd" clip-rule="evenodd" d="M10.187 11.5305C10.7274 11.2907 11.1918 10.9075 11.53 10.4225C11.8482 9.8955 12.005 9.28675 11.981 8.67155C12.0024 8.10911 11.8985 7.54895 11.677 7.03155C11.4961 6.59081 11.1988 6.20749 10.817 5.92255C10.417 5.63255 9.962 5.43555 9.484 5.34655C8.91945 5.2211 8.34228 5.16137 7.764 5.16855H1.8C1.72044 5.16855 1.64413 5.20015 1.58787 5.25641C1.53161 5.31268 1.5 5.38898 1.5 5.46855V18.8095C1.5 18.8891 1.53161 18.9654 1.58787 19.0217C1.64413 19.0779 1.72044 19.1095 1.8 19.1095H7.9C8.484 19.1095 9.066 19.0315 9.63 18.8765C10.1692 18.7278 10.6775 18.484 11.131 18.1565C11.579 17.8277 11.9395 17.394 12.181 16.8935C12.4545 16.3236 12.5875 15.6964 12.569 15.0645C12.5901 14.2832 12.3819 13.5128 11.97 12.8485C11.5425 12.1965 10.8883 11.7261 10.134 11.5285L10.187 11.5305ZM4.55 7.41855C4.49696 7.41855 4.44609 7.43962 4.40858 7.47713C4.37107 7.51463 4.35 7.5655 4.35 7.61855V10.7185C4.35 10.8285 4.44 10.9185 4.55 10.9185H7.35C7.81413 10.9185 8.25925 10.7342 8.58744 10.406C8.91563 10.0778 9.1 9.63268 9.1 9.16855C9.1 8.70442 8.91563 8.2593 8.58744 7.93111C8.25925 7.60292 7.81413 7.41855 7.35 7.41855H4.55ZM4.35 12.8685C4.35 12.7585 4.44 12.6685 4.55 12.6685H7.475C8.03858 12.6685 8.57909 12.8924 8.9776 13.2909C9.37612 13.6895 9.6 14.23 9.6 14.7935C9.6 15.3571 9.37612 15.8976 8.9776 16.2961C8.57909 16.6947 8.03858 16.9185 7.475 16.9185H4.55C4.49696 16.9185 4.44609 16.8975 4.40858 16.86C4.37107 16.8225 4.35 16.7716 4.35 16.7185V12.8685Z" fill="black"/>
<path d="M15.4387 5.87891H20.1617C20.2405 5.8789 20.3163 5.90996 20.3724 5.96536C20.4285 6.02075 20.4606 6.09604 20.4617 6.17491L20.4747 7.13691C20.4752 7.17664 20.4678 7.21608 20.453 7.25294C20.4382 7.2898 20.4161 7.32335 20.3882 7.35163C20.3603 7.37991 20.3271 7.40237 20.2904 7.41769C20.2537 7.43302 20.2144 7.44091 20.1747 7.44091H15.4387C15.3591 7.44091 15.2828 7.4093 15.2265 7.35304C15.1703 7.29678 15.1387 7.22047 15.1387 7.14091V6.17891C15.1387 6.09934 15.1703 6.02303 15.2265 5.96677C15.2828 5.91051 15.3591 5.87891 15.4387 5.87891Z" fill="black"/>
<path fill-rule="evenodd" clip-rule="evenodd" d="M17.9719 17.039C18.4586 17.0535 18.9369 16.9096 19.3349 16.629C19.5949 16.456 19.8019 16.209 19.9329 15.917C19.9498 15.8794 19.9769 15.8472 20.0112 15.8242C20.0455 15.8012 20.0856 15.7883 20.1269 15.787H22.0479C22.1779 15.787 22.2739 15.909 22.2349 16.033C21.9501 16.9721 21.3762 17.7973 20.5949 18.391C19.7725 18.9265 18.8057 19.1969 17.8249 19.166C17.1279 19.1785 16.4355 19.0506 15.7889 18.79C15.2009 18.5415 14.6773 18.1623 14.2579 17.681C13.8427 17.1814 13.5289 16.6057 13.3339 15.986C13.1003 15.2938 12.987 14.5666 12.9989 13.836C12.9924 13.1158 13.1094 12.3997 13.3449 11.719C13.5603 11.0965 13.8991 10.5237 14.3409 10.035C14.7744 9.56418 15.2994 9.1868 15.8839 8.92605C16.5122 8.65143 17.1912 8.51176 17.8769 8.51605C18.6072 8.50592 19.3286 8.67775 19.9759 9.01605C20.568 9.34362 21.0776 9.80191 21.4659 10.356C21.8569 10.934 22.1419 11.584 22.3049 12.273C22.4726 12.9993 22.5326 13.7463 22.4829 14.49H15.5379C15.5045 15.1983 15.7362 15.8935 16.1879 16.44C16.4299 16.664 16.7139 16.833 17.0209 16.936C17.3279 17.039 17.6519 17.074 17.9719 17.039ZM15.5999 12.568C15.5998 12.5813 15.6023 12.5945 15.6073 12.6069C15.6123 12.6192 15.6198 12.6304 15.6292 12.6398C15.6386 12.6492 15.6498 12.6566 15.6621 12.6616C15.6744 12.6667 15.6876 12.6692 15.7009 12.669H19.7489C19.7622 12.6692 19.7754 12.6667 19.7877 12.6616C19.8 12.6566 19.8112 12.6492 19.8206 12.6398C19.83 12.6304 19.8374 12.6192 19.8425 12.6069C19.8475 12.5945 19.85 12.5813 19.8499 12.568C19.8499 12.0313 19.6367 11.5164 19.2571 11.1369C18.8775 10.7573 18.3627 10.544 17.8259 10.544H17.6239C17.0871 10.544 16.5723 10.7573 16.1927 11.1369C15.8131 11.5164 15.5999 12.0313 15.5999 12.568Z" fill="black"/>
</svg>
