<svg width="17" height="17" viewBox="0 0 17 17" fill="none" xmlns="http://www.w3.org/2000/svg">
<path d="M4.76492 0H11.6658C14.2948 0 16.4308 2.136 16.4308 4.76492V11.6658C16.4308 12.9296 15.9288 14.1416 15.0352 15.0352C14.1416 15.9288 12.9296 16.4308 11.6658 16.4308H4.76492C2.136 16.4308 0 14.2948 0 11.6658V4.76492C0 3.50119 0.502017 2.28921 1.39561 1.39561C2.28921 0.502017 3.50119 0 4.76492 0ZM4.60062 1.64308C3.81623 1.64308 3.06397 1.95467 2.50932 2.50932C1.95467 3.06397 1.64308 3.81623 1.64308 4.60062V11.8302C1.64308 13.465 2.96575 14.7877 4.60062 14.7877H11.8302C12.6145 14.7877 13.3668 14.4761 13.9214 13.9214C14.4761 13.3668 14.7877 12.6145 14.7877 11.8302V4.60062C14.7877 2.96575 13.465 1.64308 11.8302 1.64308H4.60062ZM12.5285 2.87538C12.8008 2.87538 13.062 2.98358 13.2546 3.17616C13.4472 3.36875 13.5554 3.62995 13.5554 3.90231C13.5554 4.17466 13.4472 4.43587 13.2546 4.62845C13.062 4.82104 12.8008 4.92923 12.5285 4.92923C12.2561 4.92923 11.9949 4.82104 11.8023 4.62845C11.6097 4.43587 11.5015 4.17466 11.5015 3.90231C11.5015 3.62995 11.6097 3.36875 11.8023 3.17616C11.9949 2.98358 12.2561 2.87538 12.5285 2.87538ZM8.21538 4.10769C9.30481 4.10769 10.3496 4.54047 11.12 5.31081C11.8903 6.08115 12.3231 7.12596 12.3231 8.21538C12.3231 9.30481 11.8903 10.3496 11.12 11.12C10.3496 11.8903 9.30481 12.3231 8.21538 12.3231C7.12596 12.3231 6.08115 11.8903 5.31081 11.12C4.54047 10.3496 4.10769 9.30481 4.10769 8.21538C4.10769 7.12596 4.54047 6.08115 5.31081 5.31081C6.08115 4.54047 7.12596 4.10769 8.21538 4.10769ZM8.21538 5.75077C7.56173 5.75077 6.93484 6.01043 6.47264 6.47264C6.01043 6.93484 5.75077 7.56173 5.75077 8.21538C5.75077 8.86904 6.01043 9.49593 6.47264 9.95813C6.93484 10.4203 7.56173 10.68 8.21538 10.68C8.86904 10.68 9.49593 10.4203 9.95813 9.95813C10.4203 9.49593 10.68 8.86904 10.68 8.21538C10.68 7.56173 10.4203 6.93484 9.95813 6.47264C9.49593 6.01043 8.86904 5.75077 8.21538 5.75077Z" fill="#202020"/>
</svg>
