<svg width="17" height="17" viewBox="0 0 17 17" fill="none" xmlns="http://www.w3.org/2000/svg">
<path d="M4.75018 3.69804C4.75 4.06118 4.60557 4.40938 4.34866 4.66603C4.09175 4.92268 3.74341 5.06677 3.38027 5.06659C3.01712 5.06641 2.66893 4.92197 2.41227 4.66506C2.15562 4.40816 2.01154 4.05981 2.01172 3.69667C2.0119 3.33353 2.15633 2.98533 2.41324 2.72868C2.67015 2.47203 3.01849 2.32794 3.38163 2.32813C3.74478 2.32831 4.09297 2.47274 4.34963 2.72965C4.60628 2.98656 4.75036 3.3349 4.75018 3.69804ZM4.79126 6.0805H2.0528V14.6519H4.79126V6.0805ZM9.11803 6.0805H6.39326V14.6519H9.09064V10.154C9.09064 7.64827 12.3563 7.4155 12.3563 10.154V14.6519H15.0605V9.22289C15.0605 4.99881 10.2271 5.15627 9.09064 7.23066L9.11803 6.0805Z" fill="#202020"/>
</svg>
