<svg width="30" height="27" viewBox="0 0 30 27" fill="none" xmlns="http://www.w3.org/2000/svg">
<path d="M26.9792 22.2569C27.573 22.2572 28.144 22.486 28.5738 22.8958C29.0036 23.3056 29.2593 23.8651 29.2878 24.4583C29.3164 25.0515 29.1156 25.6329 28.7271 26.0821C28.3387 26.5313 27.7923 26.8138 27.2012 26.8711L26.9792 26.8819H2.3125C1.71862 26.8816 1.14762 26.6529 0.717821 26.243C0.288016 25.8332 0.0323565 25.2737 0.00381676 24.6805C-0.0247229 24.0874 0.176046 23.5059 0.56452 23.0567C0.952995 22.6075 1.4994 22.325 2.0905 22.2677L2.3125 22.2569H26.9792ZM26.9792 11.4653C27.5925 11.4653 28.1807 11.7089 28.6143 12.1426C29.048 12.5762 29.2917 13.1644 29.2917 13.7778C29.2917 14.3911 29.048 14.9793 28.6143 15.4129C28.1807 15.8466 27.5925 16.0903 26.9792 16.0903H2.3125C1.69919 16.0903 1.11099 15.8466 0.677316 15.4129C0.243638 14.9793 0 14.3911 0 13.7778C0 13.1644 0.243638 12.5762 0.677316 12.1426C1.11099 11.7089 1.69919 11.4653 2.3125 11.4653H26.9792ZM26.9792 0.673584C27.5925 0.673584 28.1807 0.917222 28.6143 1.3509C29.048 1.78458 29.2917 2.37277 29.2917 2.98608C29.2917 3.5994 29.048 4.18759 28.6143 4.62127C28.1807 5.05495 27.5925 5.29858 26.9792 5.29858H2.3125C1.69919 5.29858 1.11099 5.05495 0.677316 4.62127C0.243638 4.18759 0 3.5994 0 2.98608C0 2.37277 0.243638 1.78458 0.677316 1.3509C1.11099 0.917222 1.69919 0.673584 2.3125 0.673584H26.9792Z" fill="#ACFF6A"/>
</svg>
