<svg width="16" height="18" viewBox="0 0 16 18" fill="none" xmlns="http://www.w3.org/2000/svg">
<path d="M16 9C16.0006 9.23505 15.9373 9.46625 15.8162 9.67111C15.6951 9.87597 15.5204 10.0475 15.3091 10.1691L2.21091 17.7962C1.99008 17.9249 1.73715 17.9952 1.47825 17.9998C1.21935 18.0043 0.963868 17.943 0.738182 17.8222C0.514645 17.7032 0.328433 17.5297 0.198694 17.3195C0.0689558 17.1093 0.000373507 16.87 0 16.6263V1.37373C0.000373507 1.12995 0.0689558 0.890665 0.198694 0.68048C0.328433 0.470295 0.514645 0.296797 0.738182 0.177827C0.963868 0.0569808 1.21935 -0.00432631 1.47825 0.000237404C1.73715 0.00480112 1.99008 0.0750703 2.21091 0.203788L15.3091 7.83092C15.5204 7.95248 15.6951 8.12403 15.8162 8.32889C15.9373 8.53375 16.0006 8.76495 16 9Z" fill="#ACFF6A"/>
</svg>
