<svg width="12" height="14" viewBox="0 0 12 14" fill="none" xmlns="http://www.w3.org/2000/svg">
<path d="M9.23358 2.14513C8.72631 1.55143 8.44672 0.789133 8.44679 0H6.15324V9.43248C6.13592 9.94304 5.92576 10.4268 5.56709 10.7816C5.20843 11.1363 4.72931 11.3345 4.23082 11.3342C3.17682 11.3342 2.30097 10.4518 2.30097 9.35641C2.30097 8.04803 3.5331 7.06675 4.80235 7.46991V5.06615C2.24159 4.71624 0 6.75487 0 9.35641C0 11.8895 2.04861 13.6923 4.2234 13.6923C6.55406 13.6923 8.44679 11.7526 8.44679 9.35641V4.57171C9.37683 5.25621 10.4934 5.62347 11.6385 5.62145V3.27094C11.6385 3.27094 10.243 3.3394 9.23358 2.14513Z" fill="#202020"/>
</svg>
