<svg width="146" height="36" viewBox="0 0 146 36" fill="none" xmlns="http://www.w3.org/2000/svg">
<path d="M75.3269 0.210835C75.0531 0.448025 75.1102 -0.316254 74.825 7.35286C74.7566 9.13441 74.6653 10.7262 74.6311 10.8843L74.5627 11.1742L74.1292 10.5681L73.7072 9.9672L73.5019 10.1622C73.3878 10.2676 73.2623 10.3572 73.2281 10.3572C72.8403 10.3572 72.4411 8.7022 71.4031 2.74085C71.2092 1.63924 71.0153 0.616692 70.9697 0.474377C70.9241 0.326794 70.8214 2.2243 70.7302 4.71742C70.6503 7.19473 70.5363 10.1728 70.4906 11.3324L70.4108 13.4407L69.4983 14.3104L68.5858 15.1801L68.3348 14.9587C68.1295 14.7637 68.0953 14.6425 68.0839 14.0363C68.0839 13.3827 67.2284 8.81816 67.1942 9.27672C67.1828 9.47174 66.852 9.93558 66.7266 9.93558C66.6923 9.93558 66.4984 9.18184 66.2817 8.25944C66.065 7.34231 65.8597 6.56223 65.8255 6.52533C65.7913 6.4937 65.7684 7.63221 65.7798 9.05534L65.8141 11.6486L65.3236 12.5447C64.8902 13.3353 64.7989 13.4407 64.5822 13.4565C64.3997 13.4723 64.2856 13.4249 64.1145 13.2615C63.8978 13.0665 63.875 12.9558 63.875 11.9596V10.8685L63.3617 10.1253C63.0309 9.6246 62.7344 9.02372 62.4606 8.30161L62.0728 7.22108L62.0614 10.1306L62.05 13.0348L61.1831 14.0574C60.7041 14.6161 60.282 15.0958 60.225 15.1168C60.1794 15.1432 59.9284 14.7531 59.6661 14.2471C59.2327 13.4143 59.1186 13.019 58.3316 9.7511C57.8639 7.78506 57.4533 6.16164 57.4305 6.14583C57.3963 6.13528 57.3734 6.45154 57.3734 6.85739C57.3734 8.33851 56.94 11.0846 56.4838 12.5447C56.2442 13.2984 56.0275 13.8887 55.9933 13.8624C55.9477 13.8307 55.7537 13.4881 55.5484 13.0981C55.2975 12.6237 55.0123 12.2337 54.6816 11.928L54.1797 11.4641V8.31215V5.16018L53.5409 3.84773C53.1987 3.12562 52.8908 2.52474 52.8566 2.50893C52.8338 2.49839 52.8109 2.62489 52.8109 2.79883C52.8109 3.34173 52.4688 9.03953 52.4003 9.67204L52.3319 10.2729L52.1266 10.0937L51.9213 9.9145L51.6817 10.1359C51.465 10.3309 51.4422 10.4416 51.4422 11.1848C51.4422 11.9965 51.4308 12.0228 51.0202 12.6079C50.7806 12.9347 50.5639 13.2035 50.5297 13.2035C50.4841 13.2035 50.37 13.1192 50.2673 13.019C50.1077 12.8609 50.0734 12.6448 50.0734 11.6064C50.0734 10.9318 50.0164 9.45593 49.9594 8.32796C49.9023 7.19473 49.8225 5.41318 49.7769 4.359C49.7313 3.3101 49.6856 2.45622 49.6628 2.46149C49.6514 2.47203 49.5488 3.37862 49.4575 4.48023C49.0811 8.58624 48.8302 11.6064 48.8073 12.0018C48.7959 12.2284 48.7503 12.4129 48.7161 12.4129C48.6705 12.4129 48.4652 12.2548 48.2484 12.0597C47.872 11.7066 47.8606 11.6697 47.2219 9.25037L46.5831 6.79941L46.5033 7.72182C46.4577 8.22782 46.3436 9.69839 46.2409 10.9898L46.0698 13.3353L45.1916 14.7426C44.7125 15.5227 44.2791 16.1552 44.2448 16.1552C44.2106 16.1552 44.0966 16.0709 43.9939 15.9707C43.8228 15.802 43.8 15.528 43.8 13.4091V11.0319L43.435 10.7104L43.0586 10.3889L42.9902 10.5734C42.9559 10.6735 42.8419 10.8316 42.7278 10.9318L42.5225 11.111L42.3172 10.9634C42.0662 10.7842 42.0548 10.7473 41.6328 8.2489C41.4389 7.13148 41.2678 6.19326 41.2336 6.16691C41.2108 6.13528 41.188 6.26706 41.188 6.45681C41.1766 7.24744 40.3211 16.5769 40.2527 16.5769C40.093 16.5769 39.8991 16.2606 39.8534 15.918C39.8306 15.7124 39.728 14.3368 39.6367 12.8609L39.4542 10.1728L38.6444 8.61786C38.2109 7.76398 37.8117 7.04714 37.7661 7.02606C37.7205 7.00498 37.5266 8.59151 37.3213 10.5575C37.1159 12.5183 36.9106 14.2682 36.8764 14.4369C36.8194 14.711 36.7852 14.7373 36.6597 14.653C36.5798 14.6003 36.4886 14.5318 36.4658 14.5001C36.443 14.4685 36.1578 14.537 35.827 14.6425C35.4963 14.7531 35.2111 14.8375 35.1883 14.8269C35.1427 14.8059 35.0628 14.147 34.5609 9.54026C34.002 4.39063 33.8766 3.33118 33.8309 3.3101C33.8081 3.29956 33.7055 3.3839 33.6028 3.50512C33.4431 3.69487 33.4203 4.27467 33.4203 9.3347V14.9534L33.0781 15.4067C32.8842 15.6597 32.7017 15.9022 32.6675 15.9444C32.6219 16.0023 32.542 15.9707 32.3937 15.8389C32.2227 15.6914 32.177 15.5385 32.177 15.0747C32.1656 14.5529 31.8463 12.5763 31.755 12.5236C31.7322 12.513 31.4698 12.5921 31.1619 12.6975C30.8539 12.8029 30.5688 12.8873 30.5459 12.8873C30.5117 12.8873 30.238 12.6922 29.93 12.4498C29.3825 12.0228 29.3711 12.0123 29.3141 11.4799L29.257 10.937L28.6867 11.1479C28.3787 11.2638 28.105 11.3376 28.0822 11.3165C28.0708 11.2955 27.8084 9.83543 27.5005 8.06969C27.1811 6.30922 26.9073 4.84919 26.8731 4.83338C26.8275 4.81757 26.8047 5.0653 26.7933 5.38155C26.7933 6.00879 26.5538 7.59531 26.4511 7.63748C26.4169 7.65329 26.2458 7.05242 26.0633 6.30922L25.7211 4.95461L25.6641 7.72182L25.5956 10.489L25.242 11.0635C25.0367 11.3903 24.8086 11.6592 24.7059 11.6855C24.5691 11.7224 24.5234 11.812 24.5234 12.0228C24.5234 12.26 24.3409 12.5552 24.1128 12.6712C24.09 12.687 23.9873 12.6501 23.8961 12.5921C23.7592 12.5078 23.7364 12.2073 23.725 10.8843L23.7136 9.27672L23.3372 8.74963L22.9722 8.22255L22.8923 9.51391C22.8467 10.2255 22.7669 11.3271 22.6984 11.9649C22.5958 13.0612 22.1281 18.0316 22.1281 18.116C22.1281 18.1423 21.9456 18.1581 21.7289 18.1581C21.4894 18.1581 21.3297 18.1318 21.3297 18.0896C21.3297 17.9368 19.9495 12.8978 19.8697 12.7555C19.7898 12.6184 19.7442 12.6606 19.4591 13.1403C19.2766 13.4407 19.1169 13.6726 19.0941 13.6621C19.0713 13.6515 18.8203 12.7977 18.5466 11.7593C18.2614 10.7209 18.0105 9.85652 17.9762 9.8407C17.942 9.82489 17.9078 10.7051 17.9078 11.8015C17.9078 13.6515 17.885 13.8518 17.6227 14.6952C17.463 15.1959 17.3033 15.6597 17.2691 15.7335C17.212 15.86 17.2006 15.86 17.0409 15.7652C16.9155 15.6808 16.8813 15.3857 16.8813 14.2735V12.882L16.5048 12.9136L16.117 12.9505L15.7863 11.8753C15.4669 10.8158 15.4555 10.8105 15.3756 11.1479C15.33 11.3376 15.1931 12.4498 15.0563 13.6252C14.9308 14.8006 14.7939 15.9707 14.7483 16.2343L14.6684 16.7086L14.3605 15.8653C14.178 15.354 14.0411 15.1116 14.0411 15.2486C14.0297 15.3751 13.9498 15.6123 13.8472 15.7704C13.6875 16.0129 13.6419 16.0498 13.505 15.9918C13.3909 15.9338 13.3567 15.6545 13.3339 14.7742L13.3225 13.6252L12.9461 13.3985L12.5697 13.1719L12.5241 12.3338C12.4898 11.7909 12.3644 11.2269 12.1933 10.7526L11.9195 10.0146L11.8511 10.6208C11.8169 10.9529 11.6572 12.5921 11.5089 14.2577C11.3606 15.976 11.2009 17.2199 11.1553 17.1303C11.1097 17.0407 10.95 16.5558 10.8017 16.0498L10.5394 15.1274L10.22 15.3857C9.91203 15.6228 9.87781 15.6334 9.72953 15.5438C9.63828 15.4858 9.58125 15.2908 9.58125 15.0114C9.58125 14.5898 9.56984 14.5687 9.06797 14.1944L8.56609 13.8097L8.26953 11.8594C8.10984 10.7895 7.96156 9.90922 7.93875 9.89868C7.92734 9.88814 7.87031 10.6366 7.83609 11.5537C7.59656 16.5821 7.61938 16.4293 7.44828 16.3502C7.33422 16.2975 7.24297 15.7915 7.07188 14.2788C6.60422 10.1938 6.68406 10.6313 6.35328 10.4732L6.04531 10.3309V11.928C6.04531 13.4196 6.0225 13.5777 5.74875 14.2999C5.57766 14.7268 5.42938 15.0852 5.40656 15.0958C5.37234 15.1116 5.17844 15.0378 4.96172 14.9429L4.5625 14.7637V14.2419C4.5625 13.9572 4.42563 13.1982 4.26594 12.5552C3.99219 11.4378 3.87813 11.1321 3.87813 11.5221C3.87813 11.9069 3.41047 17.4149 3.35344 17.7259C3.29641 17.9895 3.25078 18.0527 3.11391 18.0422C3.01125 18.0316 2.89719 17.9895 2.85156 17.9473C2.70328 17.8102 2.41813 17.2041 2.15578 16.4609C1.93906 15.8179 1.87063 15.7283 1.63109 15.6492C1.47141 15.607 1.33453 15.5754 1.32313 15.5859C1.31172 15.5965 1.17484 15.6808 1.03797 15.7757C0.901094 15.8706 0.73 15.9338 0.672969 15.918C0.615938 15.8969 0.570312 15.7124 0.570312 15.5016C0.570312 15.1643 0.536094 15.1063 0.285156 14.9956L0 14.8744V18.9171C0 22.1007 0.0342188 22.9599 0.136875 22.9441C0.216719 22.9283 0.342188 22.7332 0.422031 22.5013C0.844063 21.2996 0.798438 21.3681 1.095 21.3154C1.30031 21.2837 1.44859 21.289 1.65391 21.3523C1.92766 21.4366 1.93906 21.4313 1.93906 21.3154C1.95047 21.2469 2.06453 20.6249 2.21281 19.9344L2.47516 18.6799L2.86297 18.4849C3.07969 18.3795 3.26219 18.2794 3.27359 18.2688C3.29641 18.2583 3.37625 18.2794 3.47891 18.3163C3.62719 18.369 3.65 18.5745 3.65 19.6287C3.65 20.3139 3.72984 21.3839 3.82109 22.0059C3.90094 22.6278 4.015 23.5081 4.06063 23.9561C4.10625 24.4252 4.17469 24.7256 4.23172 24.6676C4.27734 24.6097 4.42563 23.9719 4.5625 23.2445C4.68797 22.5224 4.81344 21.9215 4.83625 21.9163C4.85906 21.9057 4.99594 22.0269 5.13281 22.1903C5.30391 22.3854 5.44078 22.475 5.54344 22.4592C5.74875 22.4223 5.76016 22.4908 6.05672 24.2829C6.205 25.1209 6.33047 25.7956 6.34188 25.7851C6.36469 25.7798 6.51297 24.9154 6.67266 23.877C6.99203 21.7529 7.51672 19.265 7.65359 19.1912C7.87031 19.0805 7.97297 19.7025 8.03 21.6369C8.06422 22.7807 8.13266 24.2407 8.17828 24.8785L8.25813 26.0381L8.395 25.511C8.47484 25.2211 8.54328 24.9259 8.54328 24.8574C8.55469 24.7731 8.60031 24.7467 8.72578 24.7678C8.86266 24.7889 8.89688 24.7414 8.89688 24.4779C8.89688 24.304 8.97672 24.0826 9.06797 23.9772C9.15922 23.877 9.37594 23.3447 9.53563 22.7965C9.70672 22.243 9.87781 21.795 9.92344 21.795C9.95766 21.795 10.0831 21.9268 10.2086 22.0902C10.3227 22.2483 10.4481 22.3906 10.4938 22.4012C10.528 22.4117 10.6306 22.0849 10.6991 21.6738C11.2123 18.8328 11.2123 18.8275 11.3606 18.9224C11.4405 18.9698 11.5317 19.2018 11.5659 19.4389C11.623 19.8395 11.8625 25.395 11.8625 26.27C11.8625 26.4861 11.8853 26.6495 11.9309 26.6337C12.0792 26.5599 13.0031 23.8507 13.2997 22.6225C13.4708 21.8794 13.6533 21.2837 13.6875 21.3048C13.7331 21.3312 13.8586 21.4999 13.9727 21.6896C14.2806 22.2272 14.3605 22.2378 14.3719 21.7318C14.3719 21.2785 14.543 20.1505 14.6684 19.6867C14.7369 19.4548 14.7369 19.4548 14.8852 19.5813C14.9878 19.6761 15.0677 20.472 15.1703 22.5277C15.2502 24.0773 15.3414 25.6744 15.387 26.0855L15.4555 26.8287L15.7178 26.0908C15.8661 25.6849 16.0258 25.2685 16.0714 25.1684L16.1627 24.9839L16.3109 25.1262C16.4364 25.2474 16.7444 25.3581 16.8242 25.316C16.847 25.3054 16.9155 24.7045 16.9839 23.9824C17.212 21.6053 17.2348 21.4946 17.4173 21.6527C17.6112 21.8319 17.6227 21.9215 17.9762 25.8536C18.25 28.9687 18.3184 29.5959 18.3527 28.9581C18.3527 28.7947 18.4439 27.9198 18.5466 27.0184L18.7177 25.3739L19.4591 25.0471L20.2119 24.7204L20.4172 22.981C20.5427 22.0217 20.7936 20.6407 20.9761 19.9081C21.17 19.1754 21.3297 18.5534 21.3297 18.5271C21.3297 18.4955 21.5122 18.4744 21.7289 18.4744C22.2992 18.4744 22.4703 18.6272 22.5387 19.1965C22.63 19.9344 23.1547 27.4876 23.1547 28.0146C23.1547 28.2729 23.2003 28.489 23.2459 28.489C23.2916 28.489 23.4855 28.0199 23.6566 27.4454C23.8391 26.8761 24.0216 26.3754 24.0672 26.3332C24.1128 26.2911 24.2839 26.5072 24.4778 26.8603L24.8086 27.4612L24.8656 27.1713C24.9227 26.9025 25.128 26.6389 25.242 26.6969C25.2648 26.7127 25.4359 27.7037 25.6184 28.8949C25.8009 30.0914 25.9834 31.0717 26.0291 31.0717C26.0861 31.0717 26.1203 30.9189 26.1203 30.7397C26.1203 30.434 26.2458 29.8225 26.4169 29.3324L26.4853 29.1479L26.645 29.2796C26.7248 29.3534 26.7933 29.5063 26.8047 29.617C26.8161 30.2179 26.9986 29.4694 27.5005 26.7444C27.8084 25.0893 28.0708 23.7242 28.0936 23.7136C28.105 23.7031 28.3445 24.2249 28.6183 24.8679C29.2228 26.3385 29.2913 26.4334 29.3027 25.8589C29.3141 25.453 29.3483 25.395 29.7247 25.1051C30.2038 24.7467 30.3064 24.7414 31.1505 25.0682C31.447 25.1842 31.7208 25.2738 31.755 25.2738C31.7892 25.2738 31.8234 25.142 31.8234 24.9892C31.8234 24.7098 32.428 21.4419 32.5763 20.9517L32.6447 20.7145L32.85 20.899C33.0211 21.0624 33.0553 21.3259 33.1238 23.2182C33.158 24.3936 33.2492 26.9078 33.3063 28.8053L33.4317 32.2577L33.7853 32.653C34.253 33.1748 34.3328 33.2064 34.3328 32.8586C34.3328 32.7057 34.4127 31.1403 34.5039 29.3851C34.6636 26.4597 34.7092 26.0433 35.0856 24.3777C35.3023 23.3763 35.5191 22.5013 35.5533 22.4275L35.6103 22.2958L35.7928 22.4644C35.8841 22.554 36.0552 22.6436 36.1692 22.6542C36.3631 22.6805 36.3859 22.6436 36.3859 22.3063C36.3859 22.0111 36.443 21.8846 36.6255 21.7423L36.865 21.5631L37.0817 21.7423C37.2756 21.9163 37.287 22.164 37.2984 26.6706L37.3098 31.4143L37.6863 32.1259L38.0741 32.8375L38.0855 31.4196L38.0969 30.0018L38.7698 29.6486L39.4428 29.3007L39.8078 25.3212C40.3667 19.1649 40.2869 19.7341 40.5264 19.9344C40.6975 20.082 40.7203 20.2665 40.7203 21.3312C40.7203 22.0059 40.9028 24.6202 41.1195 27.1449C41.3363 29.6644 41.5302 31.8466 41.5302 31.9941C41.5416 32.1365 41.667 31.5567 41.8039 30.7028L42.0777 29.1479L42.7278 28.4363L43.378 27.7247L43.8114 24.8785C44.0509 23.313 44.2448 21.9795 44.2563 21.911C44.2563 21.7212 44.6783 21.7634 44.9064 21.9795C45.1345 22.2061 45.2144 22.2114 45.3969 22.0059C45.4767 21.9163 45.568 21.8477 45.6136 21.8477C45.6478 21.8477 45.7733 21.9479 45.8873 22.0744C46.0242 22.2325 46.0813 22.4433 46.0813 22.8228C46.0813 23.5449 46.8683 31.9256 46.9367 31.9572C46.9709 31.9731 46.9938 31.8255 46.9938 31.6252C46.9938 31.3353 47.7009 27.0026 47.8264 26.4861C47.8492 26.3859 48.0203 26.5072 48.5108 26.9816L49.1609 27.6035L49.1723 28.1675C49.1723 28.8105 49.9936 34.5294 50.0848 34.5716C50.1191 34.5874 50.2103 32.9376 50.3016 30.8978C50.4498 27.224 50.5867 24.9206 50.6323 25.2738C50.6438 25.3739 50.8263 26.4281 51.0316 27.6193L51.4194 29.7804L51.4308 28.7789L51.4422 27.7775L51.8642 27.2029C52.2977 26.6337 52.2977 26.6284 52.3775 26.834C52.4231 26.9447 52.617 28.4996 52.8109 30.2811C53.1645 33.5754 53.2216 33.9707 53.2558 33.549C53.2558 33.4173 53.3698 32.9429 53.4953 32.4949C53.6208 32.0469 53.9288 30.434 54.1797 28.9107C54.9097 24.5042 55.0922 23.4659 55.1492 23.4343C55.1834 23.4237 55.2063 23.4448 55.2063 23.4817C55.2063 23.8348 56.1073 26.3596 56.4723 27.0395C56.7575 27.5508 57.0997 28.431 57.362 29.2744L57.7841 30.6606L58.0806 30.3549C58.343 30.0703 58.4114 29.8489 58.7992 27.8038C59.1186 26.1804 59.3581 25.2 59.7117 24.246L60.1794 22.9283L60.4189 23.1391L60.6584 23.3447L61.1147 22.9283L61.5595 22.5119L61.7991 22.7227C62.0272 22.9283 62.0386 23.0758 62.1641 25.6217C62.4036 30.4392 62.472 31.583 62.4834 30.9083L62.5063 30.2442L63.1906 29.4167L63.875 28.5892V26.0064V23.429L64.3427 22.9968C64.7761 22.5962 64.8217 22.5698 64.97 22.6647C65.0612 22.7227 65.1867 22.8492 65.2438 22.9546C65.3008 23.0548 65.5061 24.9786 65.7 27.224C65.8939 29.4694 66.0992 31.5356 66.1448 31.8097C66.2361 32.2946 66.2361 32.2999 66.2589 31.952C66.2703 31.6515 66.3388 31.5356 66.7266 31.1772C67.0459 30.8767 67.2513 30.7555 67.3995 30.7555C67.6505 30.7555 67.6277 30.9242 68.0953 26.407C68.2892 24.578 68.4831 22.8861 68.5288 22.6384L68.6086 22.1903L69.0306 22.7701L69.4527 23.3499V22.9652C69.4641 22.6911 69.5325 22.5224 69.6922 22.3748C69.8177 22.2589 69.9431 22.164 69.9659 22.164C70.0002 22.164 70.1028 22.2378 70.1941 22.3327C70.3538 22.4802 70.3766 23.1496 70.3766 28.5628V34.6296L70.8214 35.2515C71.0609 35.5941 71.2891 35.8893 71.3347 35.9051C71.3689 35.9209 71.4031 35.6363 71.4031 35.2621C71.4031 34.8351 71.483 34.3608 71.6312 33.976C71.7453 33.6387 72.1331 32.1048 72.4867 30.571C72.8289 29.0319 73.1483 27.6931 73.1825 27.593C73.2509 27.419 73.2852 27.4454 73.6844 27.9883L74.1178 28.5681L74.1292 27.9777C74.1406 27.5403 74.1862 27.34 74.3345 27.1977C74.4372 27.0975 74.5627 27.0132 74.6197 27.0132C74.6653 27.0132 74.7109 27.1608 74.7109 27.34C74.7109 27.6141 75.0988 31.4987 75.4866 35.183L75.5664 36L75.8288 35.7786L76.0797 35.5572V31.6252V27.6931L76.4333 27.0501C77.015 25.9695 76.9808 26.0117 77.2203 26.0117C77.4484 26.0117 77.4484 26.0223 77.9047 25.1684C78.0416 24.9206 78.2013 24.6255 78.2697 24.5095L78.3838 24.2987L78.6005 24.4832C78.7944 24.6571 78.8058 24.9154 78.8172 30.318V35.9736H79.2734H79.7297V34.482V32.9903L80.2316 32.2524L80.7334 31.5198L80.9159 28.8316C81.0186 27.3505 81.1098 26.0328 81.1213 25.8958C81.1441 25.6059 81.2353 25.5742 81.4406 25.8009C81.5433 25.9116 81.6573 25.959 81.8512 25.959H82.125V25.258C82.125 24.6729 82.2733 24.0193 82.5242 23.4922C82.6269 23.3025 83.0033 23.3447 83.2656 23.5871C83.4709 23.7769 83.528 24.1247 83.95 27.9883C84.2009 30.2969 84.4062 32.2261 84.4062 32.2735C84.4177 32.3262 84.5089 32.2893 84.623 32.1786C84.8511 31.9783 84.8739 31.699 85.2047 23.5344C85.2731 21.9268 85.3416 20.5616 85.353 20.5037C85.3758 20.4193 85.4214 20.4299 85.5925 20.5775L85.7978 20.7567L86.0488 20.5511C86.2313 20.4035 86.3681 20.3508 86.5278 20.3613C86.6419 20.3719 86.7445 20.3877 86.7559 20.3877C86.7559 20.393 86.927 22.106 87.1323 24.1933C87.3377 26.2805 87.5544 28.1517 87.6 28.3572L87.6798 28.7262L87.7027 28.3045C87.7255 27.7406 88.1703 26.8761 88.1703 27.3874C88.1703 27.4876 88.3528 29.19 88.5695 31.1772C88.7863 33.1643 88.9688 34.9037 88.9688 35.046C88.9688 35.7575 89.1398 34.9933 89.5391 32.4105C89.9383 29.7857 90.7823 25.511 90.885 25.5584C90.9991 25.6164 91.8545 29.8858 92.2081 32.1786C92.653 35.0354 92.71 35.3411 92.8241 35.3411C93.132 35.3359 93.1777 35.1777 93.3488 33.6018C93.748 30.0545 94.4438 23.5608 94.6719 21.4261C94.957 18.6641 94.9684 18.6325 95.2536 18.6325C95.6984 18.6325 95.8809 18.954 96.1433 20.1874C96.3714 21.3365 96.4513 22.5593 96.6908 28.9792C96.725 30.1019 96.7934 31.0032 96.8391 30.9821C96.8847 30.9611 97.1584 30.0123 97.455 28.8843C97.7516 27.7511 98.0253 26.7444 98.0823 26.6442C98.128 26.523 98.2078 26.9447 98.3105 27.8302C98.3903 28.5839 98.55 30.1019 98.6641 31.2035C98.7895 32.3051 98.8922 33.3698 98.8922 33.5701C98.8922 33.7704 98.915 33.9233 98.9492 33.9127C98.972 33.8969 99.0975 33.2855 99.2344 32.5476C99.4283 31.4354 100.078 29.0108 100.329 28.4152L100.398 28.2676L100.615 28.4152C100.797 28.547 100.831 28.6735 100.831 29.3798V30.1915L101.504 30.7502L102.177 31.3089L102.611 32.8217C102.998 34.1816 103.067 34.3397 103.249 34.3397C103.443 34.3397 103.455 34.2395 103.455 32.4105V30.4867L103.865 29.3429C104.082 28.7157 104.31 28.1517 104.356 28.0937C104.436 27.9988 104.458 27.9988 104.618 28.1464L104.801 28.2993L105.04 28.0779C105.223 27.9092 105.28 27.7616 105.28 27.4243C105.28 27.0553 105.987 24.5622 106.101 24.5042C106.124 24.499 106.318 25.9695 106.534 27.7775C106.751 29.5854 106.945 31.0612 106.956 31.0507C106.979 31.0401 107.093 29.5168 107.219 27.6668C107.333 25.8167 107.435 24.2934 107.435 24.2829C107.447 24.2776 107.55 24.2723 107.675 24.2723C107.8 24.2723 107.972 24.3356 108.074 24.4305C108.223 24.5622 108.245 24.9259 108.245 26.9183C108.234 29.2269 108.245 29.2744 108.667 31.2826C109.169 33.6334 109.169 33.6281 109.375 30.8873C109.454 29.9859 109.58 28.3994 109.671 27.3558C109.762 26.3122 109.945 24.2354 110.07 22.7438C110.196 21.2521 110.333 19.6972 110.367 19.2966L110.447 18.5587L110.652 18.7432C110.857 18.9329 110.96 19.7763 111.439 24.9048C111.507 25.5848 111.587 26.2489 111.633 26.3807L111.701 26.6179L111.884 26.4228C111.987 26.3122 112.089 26.2225 112.123 26.2225C112.158 26.2225 112.272 26.2963 112.386 26.3859C112.568 26.5335 112.58 26.7971 112.58 29.7857C112.58 31.7991 112.625 33.022 112.694 33.022C112.751 33.022 112.933 32.9956 113.093 32.9587C113.367 32.9007 113.378 32.8849 113.378 32.3684C113.378 32.0732 113.629 29.8647 113.948 27.4612C114.256 25.0524 114.621 22.2061 114.747 21.1362C114.884 20.0609 115.021 19.128 115.043 19.0542L115.112 18.9224L115.283 19.0805C115.431 19.2123 115.5 19.7605 115.671 22.3748C115.785 24.0984 115.956 26.6706 116.059 28.0937C116.15 29.5116 116.23 30.8767 116.23 31.1192C116.23 31.3616 116.253 31.5514 116.287 31.5356C116.321 31.5198 116.526 30.882 116.732 30.1177C117.108 28.7895 117.142 28.5259 117.473 24.246C117.667 21.7792 117.861 19.5654 117.895 19.3177C117.963 18.9066 117.975 18.8855 118.123 19.0015C118.237 19.1016 118.271 19.4758 118.283 20.6354C118.294 22.0111 118.328 22.2483 118.671 23.4975C118.876 24.2407 119.07 24.8627 119.104 24.8785C119.127 24.8943 119.218 24.0088 119.298 22.9124C119.389 21.8214 119.48 20.7619 119.526 20.5616L119.595 20.1927L120.359 20.7988L121.123 21.3997L121.237 24.1933C121.305 25.7324 121.397 27.9672 121.431 29.1584C121.477 30.3549 121.556 31.3353 121.602 31.3353C121.659 31.3353 121.933 31.2826 122.218 31.2193L122.731 31.1034V28.41V25.7165L123.073 25.2474C123.256 24.9944 123.438 24.7731 123.473 24.7572C123.507 24.7414 123.61 24.7731 123.701 24.831C123.838 24.9154 123.86 25.3792 123.872 27.8671C123.872 29.4852 123.895 30.8082 123.929 30.8082C123.963 30.8082 124.397 30.7133 124.898 30.5974L125.811 30.3865V29.9069C125.811 29.4272 125.982 29.1479 126.336 29.053C126.45 29.0214 126.495 28.8896 126.507 28.605C126.507 28.3836 126.598 27.9725 126.712 27.6984C126.94 27.1449 126.94 27.1449 127.362 27.7616C127.476 27.9303 127.59 28.0673 127.636 28.0673C127.67 28.0673 127.841 27.4559 128.024 26.7075C128.195 25.9643 128.366 25.3212 128.389 25.2791C128.434 25.2211 128.48 25.2264 128.605 25.3054C128.742 25.3898 128.765 25.6902 128.777 26.9447V28.4837L129.45 28.6999C129.826 28.8158 130.157 28.9107 130.191 28.9107C130.237 28.9107 130.259 28.7209 130.259 28.489C130.259 28.2255 130.316 28.0094 130.419 27.9198C130.533 27.8143 130.624 27.2556 130.761 25.8641L130.955 23.9455L131.286 23.6398C131.468 23.4764 131.697 23.3236 131.799 23.3078C131.925 23.2814 131.97 23.1918 131.97 22.9441C131.97 22.6015 132.29 21.7423 132.415 21.7423C132.449 21.7423 132.586 21.8161 132.712 21.9004C132.837 21.9848 132.974 22.0586 133.031 22.0586C133.077 22.0586 133.111 21.8741 133.111 21.6474C133.111 21.2205 133.305 20.6354 133.453 20.6354C133.738 20.6354 133.784 21.0413 133.909 24.1933C133.978 26.017 134.058 27.6193 134.092 27.7406L134.16 27.9725L134.662 27.5719L135.164 27.1766V26.4492C135.164 25.4266 135.426 20.5247 135.483 20.5511C135.506 20.5669 135.643 20.8463 135.791 21.1731C135.985 21.6316 136.054 21.716 136.065 21.542C136.065 21.4155 136.156 21.2416 136.259 21.152C136.43 20.9991 136.464 20.9939 136.59 21.0782C136.75 21.1783 136.841 21.7529 136.978 23.6925C137.023 24.3725 137.092 24.8943 137.126 24.8521C137.16 24.81 137.377 23.9561 137.616 22.9546C137.845 21.9531 138.061 21.1256 138.084 21.1151C138.107 21.1045 138.13 21.1098 138.13 21.1309C138.13 21.21 138.94 22.8703 138.985 22.8966C139.019 22.9072 139.042 22.8755 139.042 22.8176C139.042 22.7649 139.168 21.9953 139.327 21.1098C139.487 20.2296 139.613 19.4442 139.613 19.3757C139.613 19.2545 139.624 19.2545 139.829 19.3388C140.08 19.4442 140.297 19.4126 140.297 19.2703C140.297 19.1332 140.628 19.012 140.753 19.1016C140.867 19.1912 140.958 19.966 141.038 21.4524C141.118 22.8492 141.198 23.3763 141.335 23.3763C141.392 23.3763 141.438 23.2551 141.438 23.1075C141.438 22.8123 142.213 21.8899 142.361 22.0164C142.396 22.0533 142.533 22.5698 142.647 23.1654C142.909 24.4937 142.932 24.4463 143.262 21.8477C143.456 20.3508 143.548 19.9133 143.673 19.8817C143.776 19.8553 143.833 19.7499 143.833 19.6076C143.833 19.3019 144.038 19.0858 144.255 19.1649C144.369 19.2123 144.403 19.6656 144.403 21.5473V23.8665L144.688 23.7452C144.939 23.6398 144.973 23.5766 144.973 23.2761C144.973 22.8545 145.441 18.6641 145.487 18.6378C145.612 18.5798 145.772 18.7168 145.772 18.875C145.772 18.9751 145.829 19.0542 145.886 19.0542C145.954 19.0542 146 18.7485 146 18.2372C146 17.5994 145.966 17.4202 145.852 17.4202C145.772 17.4202 145.646 17.4466 145.589 17.4729C145.27 17.6205 145.19 17.3464 144.973 15.2275C144.688 12.5868 144.631 12.202 144.517 12.202C144.38 12.202 144.3 12.8556 144.232 14.5739C144.198 15.4278 144.141 16.3186 144.095 16.5505L144.027 16.9722L143.776 16.6296C143.639 16.4398 143.479 16.229 143.399 16.1552C143.331 16.0814 143.148 15.159 143 14.0996L142.726 12.1757L142.704 13.5777L142.692 14.9798L142.27 15.2275C141.757 15.5332 141.768 15.5438 141.483 14.5845C141.369 14.1997 141.244 13.9045 141.209 13.9256C141.164 13.952 141.015 14.6741 140.867 15.5385C140.719 16.3977 140.559 17.0881 140.514 17.0671C140.479 17.0407 140.342 16.8931 140.228 16.735C140.023 16.4609 140.012 16.4556 139.978 16.6138C139.955 16.7034 139.863 16.8088 139.772 16.8457C139.487 16.9564 139.384 16.8088 139.384 16.287C139.384 15.8969 139.327 15.7283 139.054 15.3646L138.723 14.9165L138.711 15.1959C138.7 15.5438 138.472 16.2079 138.358 16.2079C138.164 16.2079 138.027 15.8706 137.913 15.101C137.845 14.653 137.788 14.2471 137.788 14.1944C137.788 14.147 137.651 14.0837 137.48 14.0574C137.297 14.031 137.069 13.9889 136.966 13.9678C136.784 13.9362 136.761 13.9678 136.761 14.2788C136.761 14.4738 136.693 14.711 136.601 14.8111C136.442 14.9745 136.396 14.9903 136.088 14.964C135.734 14.9324 135.734 14.9324 135.734 15.1485C135.734 15.2697 135.677 15.4173 135.609 15.4753C135.495 15.5807 135.483 15.5807 135.335 15.4858C135.198 15.412 135.175 15.0747 135.164 13.8044C135.164 12.2758 135.153 12.1599 134.708 10.5365C134.457 9.61406 134.252 8.78653 134.252 8.7022C134.252 8.61786 134.229 8.55988 134.195 8.57043C134.172 8.58624 134.069 9.29253 133.966 10.1464C133.875 11.0003 133.75 12.1283 133.681 12.6501C133.624 13.1719 133.544 13.9256 133.499 14.3315C133.453 14.7321 133.385 15.0272 133.339 14.9903C133.293 14.9482 133.168 14.7268 133.054 14.4949C132.803 13.9414 132.655 13.8782 132.655 14.3209C132.655 14.5476 132.598 14.6846 132.495 14.7268C132.37 14.7742 132.278 14.711 132.016 14.3895C131.685 13.9889 131.594 13.9309 131.468 14.0732C131.377 14.1892 131.229 14.1681 131.081 14.0205C130.989 13.9256 130.944 13.3564 130.944 12.1704V10.4521L130.476 9.76164C129.974 9.02372 129.815 8.86559 129.894 9.18184C129.963 9.44012 129.552 10.9265 129.45 10.8C129.415 10.742 129.256 10.3994 129.119 10.0305C128.97 9.65622 128.834 9.36105 128.822 9.3716C128.788 9.38741 128.434 12.7555 128.434 13.1192L128.423 13.3353L128.252 13.1877C128.115 13.0717 128.081 12.8293 128.069 12.0545C128.069 11.1163 128.047 11.0372 127.704 10.4627C127.396 9.93558 127.351 9.88287 127.317 10.0674C127.282 10.2782 127.088 10.5154 126.952 10.5154C126.78 10.5154 126.495 10.1201 126.495 9.86706C126.495 9.6246 126.415 9.52972 125.765 9.02899L125.024 8.46501L124.682 7.01025C124.488 6.21435 124.328 5.52386 124.328 5.47116C124.328 5.42372 124.305 5.39736 124.283 5.40791C124.26 5.41845 124.066 6.65183 123.872 8.14348C123.678 9.63514 123.495 10.8896 123.473 10.9212C123.404 11.0214 123.085 10.9423 122.902 10.7736C122.754 10.6524 122.731 10.2307 122.731 8.23836V5.85066L122.378 5.34993C122.184 5.07584 121.978 4.82811 121.933 4.80176C121.876 4.78067 121.762 4.8123 121.67 4.88082C121.534 4.98624 121.488 5.39209 121.431 7.14202C121.385 8.31742 121.305 10.4732 121.237 11.9385L121.123 14.6003L120.359 15.5122C119.857 16.1183 119.583 16.3924 119.526 16.3291C119.492 16.2764 119.309 15.665 119.127 14.9693L118.796 13.7042L118.728 14.2577C118.682 14.5634 118.488 15.3224 118.294 15.9444C118.1 16.5663 117.941 17.0881 117.941 17.104C117.941 17.1198 117.838 17.0565 117.724 16.9722C117.519 16.8246 117.496 16.5505 117.325 12.7291L117.131 8.64422L116.777 7.959C116.583 7.5795 116.389 7.24217 116.344 7.20527C116.298 7.1631 116.23 7.74817 116.184 8.49663C115.979 12.2284 115.865 13.3089 115.477 15.2855C115.26 16.4135 115.066 17.3622 115.043 17.3939C115.032 17.4202 114.929 17.3728 114.827 17.2832C114.644 17.1198 114.53 16.0603 114.005 9.4612C113.857 7.63748 113.116 3.17833 112.945 3.08345C112.922 3.06764 112.831 3.09927 112.751 3.15198C112.557 3.27848 112.5 3.85827 112.352 6.85212C112.158 10.8896 112.123 11.2533 111.895 11.2533C111.736 11.2533 111.69 11.3165 111.633 11.5801C111.599 11.7646 111.325 13.1666 111.04 14.7057C110.755 16.2395 110.481 17.5572 110.447 17.631C110.39 17.7628 110.39 17.7575 110.184 17.5783C110.013 17.4149 109.979 17.0829 109.854 14.3895C109.785 12.7344 109.694 10.6471 109.648 9.74056L109.58 8.09605L109.146 7.68492L108.724 7.27379L108.713 7.48463C108.69 8.05915 107.858 12.8135 107.778 12.8556C107.493 12.9979 107.39 12.6922 107.036 10.6313C106.614 8.18038 106.569 8.00644 106.557 8.59151C106.534 9.02899 106.204 11.0741 106.124 11.19C106.101 11.2322 105.827 11.1848 105.314 11.0372C104.892 10.916 104.504 10.8105 104.458 10.8C104.413 10.7842 104.287 10.8474 104.185 10.937C104.071 11.0214 103.945 11.0952 103.911 11.0952C103.877 11.0952 103.774 10.995 103.66 10.8685C103.5 10.6788 103.455 10.2413 103.352 7.959C103.192 4.63836 103.078 2.81991 103.033 2.92533C103.01 2.96749 102.713 3.98477 102.371 5.18653C102.029 6.38829 101.732 7.37921 101.71 7.38975C101.675 7.40029 101.595 7.33704 101.516 7.24744C101.345 7.06296 101.173 7.04187 101.162 7.20527C101.151 7.43719 100.398 8.90776 100.341 8.8287C100.09 8.54407 99.4169 7.1104 99.1203 6.24597C98.55 4.59092 98.6298 4.36954 98.2991 8.52299C98.2306 9.50337 98.1508 10.294 98.128 10.2835C98.1052 10.2729 97.8998 9.68785 97.6831 8.98155C97.2497 7.55315 97.2497 7.56369 97.033 7.56369C96.9189 7.56369 96.8505 7.94846 96.7478 9.4981C96.3486 15.0378 96.3942 14.711 95.9152 16.4451C95.6756 17.3411 95.4703 18.1054 95.4703 18.1423C95.4703 18.2952 95.0141 18.2056 94.7973 18.0105C94.5692 17.805 94.5464 17.61 94.2042 12.94C94.0902 11.3429 94.0445 11.0846 93.4628 9.09224C93.132 7.91684 92.8127 6.86794 92.7784 6.75198L92.71 6.55168L92.4933 6.69927C92.3792 6.7836 92.2766 6.84158 92.2652 6.82577C92.2538 6.80996 92.0598 6.20381 91.8317 5.4817L91.3983 4.16398L91.3298 4.61201C91.2842 4.85974 91.2044 6.12474 91.1359 7.43192C90.8964 12.3233 90.8964 12.3075 90.6683 12.3075C90.5314 12.3075 90.3603 12.2231 90.212 12.0861C89.9725 11.87 89.9611 11.7382 89.7558 8.40703C89.5619 5.22342 89.5163 4.8123 89.1284 3.10981C88.9003 2.09253 88.6836 1.22811 88.6494 1.18594C88.5809 1.10688 88.5353 1.76574 88.2844 7.04714L88.1361 10.1464H87.657H87.1894L87.0411 12.0281C86.9727 13.0665 86.87 14.3947 86.8358 14.9798C86.8016 15.5701 86.7331 16.0498 86.6875 16.0498C86.6419 16.0498 86.3225 15.9549 85.9803 15.8389L85.353 15.6334L85.2731 14.9587C85.2389 14.5898 85.045 12.7291 84.8625 10.8316C84.4405 6.5306 84.4519 6.61493 84.1667 6.61493C83.9614 6.61493 83.95 6.694 83.95 9.63514V12.6553L83.5508 13.2088C83.3341 13.5092 83.1288 13.7886 83.0945 13.8307C83.0489 13.8782 82.798 13.7622 82.3759 13.4987L81.7258 13.0928L81.6573 13.2931C81.6231 13.4038 81.4977 13.583 81.3722 13.6937L81.1441 13.894L80.9045 13.641C80.6764 13.3985 80.6536 13.2562 80.5281 10.3045C80.2886 4.78594 80.2544 4.43807 79.7753 2.19795C79.5358 1.06471 79.3077 0.131771 79.262 0.131771C79.2278 0.131771 79.1138 0.221375 79.0111 0.326794C78.8514 0.500732 78.8172 1.04363 78.7031 4.24305C78.4978 10.3309 78.3609 13.7464 78.3153 13.7728C78.2811 13.7833 78.1784 13.7201 78.0872 13.6305C77.9617 13.525 77.9047 13.33 77.9047 13.019V12.5657L77.2089 12.1441L76.5245 11.7224L76.4105 10.5259C76.3534 9.86706 76.1595 7.35813 75.9656 4.95461C75.7831 2.54583 75.612 0.448025 75.6006 0.289898L75.5664 0L75.3269 0.210835Z" fill="#DADADA" fill-opacity="0.5"/>
</svg>
