<svg width="28" height="29" viewBox="0 0 28 29" fill="none" xmlns="http://www.w3.org/2000/svg">
<path d="M23.9193 4.09449C22.6291 2.79174 21.0926 1.7588 19.3992 1.05585C17.7059 0.352897 15.8895 -0.00599834 14.0561 7.58313e-05C6.37378 7.58313e-05 0.112561 6.2613 0.112561 13.9436C0.112561 16.4059 0.759789 18.7978 1.96982 20.9083L0 28.1404L7.38683 26.1987C9.427 27.3102 11.7204 27.9012 14.0561 27.9012C21.7384 27.9012 27.9996 21.64 27.9996 13.9577C27.9996 10.2291 26.5504 6.72561 23.9193 4.09449ZM14.0561 25.5374C11.9737 25.5374 9.93353 24.9746 8.14662 23.9193L7.72451 23.6661L3.33463 24.8198L4.50245 20.5425L4.22105 20.1063C3.06384 18.259 2.44951 16.1235 2.44821 13.9436C2.44821 7.55575 7.65416 2.34979 14.042 2.34979C17.1374 2.34979 20.05 3.55983 22.2308 5.75477C23.3109 6.82954 24.1668 8.10806 24.7489 9.51618C25.331 10.9243 25.6277 12.434 25.6218 13.9577C25.6499 20.3455 20.4439 25.5374 14.0561 25.5374ZM20.4158 16.8702C20.064 16.7014 18.3475 15.8571 18.0379 15.7305C17.7143 15.6179 17.4892 15.5617 17.25 15.8994C17.0108 16.2511 16.3495 17.039 16.1525 17.2642C15.9556 17.5034 15.7445 17.5315 15.3927 17.3486C15.041 17.1797 13.9154 16.7998 12.5928 15.6179C11.5516 14.6893 10.8622 13.5496 10.6511 13.1979C10.4541 12.8461 10.623 12.6632 10.8059 12.4803C10.9607 12.3255 11.1576 12.0723 11.3265 11.8753C11.4953 11.6783 11.5657 11.5235 11.6782 11.2984C11.7908 11.0592 11.7345 10.8622 11.6501 10.6934C11.5657 10.5246 10.8622 8.80799 10.5808 8.10449C10.2994 7.42912 10.0039 7.51354 9.79283 7.49947H9.11746C8.87827 7.49947 8.51244 7.58389 8.18883 7.93564C7.87929 8.2874 6.9788 9.13161 6.9788 10.8482C6.9788 12.5647 8.23104 14.225 8.39988 14.4501C8.56873 14.6893 10.8622 18.2069 14.3516 19.7124C15.1817 20.0782 15.8289 20.2892 16.3355 20.444C17.1656 20.7113 17.9254 20.6691 18.5304 20.5847C19.2058 20.4862 20.5987 19.7405 20.8801 18.9244C21.1756 18.1084 21.1756 17.4189 21.0771 17.2642C20.9786 17.1094 20.7675 17.039 20.4158 16.8702Z" fill="#1E1E1E"/>
</svg>
