<svg width="16" height="13" viewBox="0 0 16 13" fill="none" xmlns="http://www.w3.org/2000/svg">
<path fill-rule="evenodd" clip-rule="evenodd" d="M7.53077 0C8.17465 0 8.8351 0.0169443 9.47521 0.0446712L10.2313 0.0816403L10.955 0.125541L11.6328 0.172523L12.2518 0.221815C12.9237 0.274105 13.556 0.567196 14.0373 1.04947C14.5187 1.53173 14.8182 2.17225 14.8831 2.85818L14.9132 3.18551L14.9697 3.88639C15.0224 4.61268 15.0615 5.40444 15.0615 6.16154C15.0615 6.91864 15.0224 7.7104 14.9697 8.43669L14.9132 9.13756L14.8831 9.46489C14.8181 10.151 14.5185 10.7916 14.037 11.2738C13.5555 11.7561 12.9231 12.0491 12.2511 12.1013L11.6335 12.1498L10.9558 12.1975L10.2313 12.2414L9.47521 12.2784C8.82744 12.3071 8.17915 12.322 7.53077 12.3231C6.88239 12.322 6.2341 12.3071 5.58632 12.2784L4.83024 12.2414L4.10653 12.1975L3.42876 12.1498L2.80973 12.1013C2.13785 12.049 1.50555 11.7559 1.02422 11.2736C0.542884 10.7913 0.243388 10.1508 0.178479 9.46489L0.148356 9.13756L0.0918754 8.43669C0.0345156 7.67968 0.00387054 6.9208 0 6.16154C0 5.40444 0.03916 4.61268 0.0918754 3.88639L0.148356 3.18551L0.178479 2.85818C0.243362 2.17237 0.542751 1.53195 1.02393 1.0497C1.50511 0.567446 2.13723 0.274278 2.80898 0.221815L3.42725 0.172523L4.10502 0.125541L4.82948 0.0816403L5.58557 0.0446712C6.2336 0.0159639 6.88214 0.00107024 7.53077 0ZM6.02462 4.29382V8.02925C6.02462 8.38508 6.40115 8.6069 6.70238 8.42975L9.86531 6.56204C9.93413 6.52152 9.9913 6.46316 10.0311 6.39285C10.0708 6.32254 10.0917 6.24276 10.0917 6.16154C10.0917 6.08032 10.0708 6.00053 10.0311 5.93022C9.9913 5.85991 9.93413 5.80156 9.86531 5.76104L6.70238 3.89409C6.63367 3.85352 6.55573 3.83217 6.47639 3.83218C6.39705 3.83219 6.31911 3.85357 6.25041 3.89417C6.18172 3.93476 6.12468 3.99314 6.08504 4.06343C6.04541 4.13372 6.02456 4.21345 6.02462 4.29459V4.29382Z" fill="#202020"/>
</svg>
