<svg width="32" height="26" viewBox="0 0 32 26" fill="none" xmlns="http://www.w3.org/2000/svg">
<path fill-rule="evenodd" clip-rule="evenodd" d="M16 0C17.368 0 18.7712 0.0357501 20.1312 0.0942501L21.7376 0.17225L23.2752 0.264875L24.7152 0.364L26.0304 0.468C27.4579 0.578323 28.8013 1.19671 29.8239 2.21423C30.8466 3.23175 31.4829 4.58314 31.6208 6.03038L31.6848 6.721L31.8048 8.19975C31.9168 9.73212 32 11.4026 32 13C32 14.5974 31.9168 16.2679 31.8048 17.8003L31.6848 19.279L31.6208 19.9696C31.4828 21.4171 30.8463 22.7687 29.8233 23.7863C28.8003 24.8038 27.4566 25.422 26.0288 25.532L24.7168 25.6344L23.2768 25.7351L21.7376 25.8277L20.1312 25.9057C18.7549 25.9663 17.3776 25.9977 16 26C14.6224 25.9977 13.2451 25.9663 11.8688 25.9057L10.2624 25.8277L8.7248 25.7351L7.2848 25.6344L5.9696 25.532C4.5421 25.4217 3.19872 24.8033 2.17607 23.7858C1.15342 22.7682 0.517105 21.4169 0.3792 19.9696L0.3152 19.279L0.1952 17.8003C0.0733324 16.2031 0.00822343 14.6019 0 13C0 11.4026 0.0832 9.73212 0.1952 8.19975L0.3152 6.721L0.3792 6.03038C0.517052 4.5834 1.15314 3.23221 2.17546 2.21472C3.19778 1.19723 4.54079 0.578689 5.968 0.468L7.2816 0.364L8.7216 0.264875L10.2608 0.17225L11.8672 0.0942501C13.244 0.0336817 14.6219 0.00225807 16 0ZM12.8 9.05937V16.9406C12.8 17.6914 13.6 18.1594 14.24 17.7856L20.96 13.845C21.1062 13.7595 21.2277 13.6364 21.3121 13.488C21.3966 13.3397 21.4411 13.1714 21.4411 13C21.4411 12.8286 21.3966 12.6603 21.3121 12.512C21.2277 12.3636 21.1062 12.2405 20.96 12.155L14.24 8.216C14.094 8.1304 13.9284 8.08535 13.7598 8.08537C13.5913 8.0854 13.4257 8.13051 13.2797 8.21616C13.1338 8.3018 13.0126 8.42498 12.9284 8.57328C12.8442 8.72159 12.7999 8.8898 12.8 9.061V9.05937Z" fill="#ACFF6A"/>
</svg>
